<svg xmlns="http://www.w3.org/2000/svg" width="100%" height="100%" viewBox="0 0 1200 800"><rect width="1200" height="800" fill="red"/><defs><linearGradient id="a" x1="600" x2="600" y1="25" y2="777" gradientUnits="userSpaceOnUse"><stop offset="0" stop-color="red"/><stop offset="1" stop-color="#E0F"/></linearGradient><linearGradient id="b" x1="650" x2="650" y1="25" y2="777" gradientUnits="userSpaceOnUse"><stop offset="0" stop-color="#ff0019"/><stop offset="1" stop-color="#ce00f3"/></linearGradient><linearGradient id="c" x1="700" x2="700" y1="25" y2="777" gradientUnits="userSpaceOnUse"><stop offset="0" stop-color="#ff0031"/><stop offset="1" stop-color="#b000e6"/></linearGradient><linearGradient id="d" x1="750" x2="750" y1="25" y2="777" gradientUnits="userSpaceOnUse"><stop offset="0" stop-color="#ff004a"/><stop offset="1" stop-color="#9400da"/></linearGradient><linearGradient id="e" x1="800" x2="800" y1="25" y2="777" gradientUnits="userSpaceOnUse"><stop offset="0" stop-color="#ff0063"/><stop offset="1" stop-color="#7a00ce"/></linearGradient><linearGradient id="f" x1="850" x2="850" y1="25" y2="777" gradientUnits="userSpaceOnUse"><stop offset="0" stop-color="#ff007c"/><stop offset="1" stop-color="#6200c1"/></linearGradient><linearGradient id="g" x1="900" x2="900" y1="25" y2="777" gradientUnits="userSpaceOnUse"><stop offset="0" stop-color="#ff0094"/><stop offset="1" stop-color="#4d00b5"/></linearGradient><linearGradient id="h" x1="950" x2="950" y1="25" y2="777" gradientUnits="userSpaceOnUse"><stop offset="0" stop-color="#ff00ad"/><stop offset="1" stop-color="#3900a8"/></linearGradient><linearGradient id="i" x1="1000" x2="1000" y1="25" y2="777" gradientUnits="userSpaceOnUse"><stop offset="0" stop-color="#ff00c6"/><stop offset="1" stop-color="#28009c"/></linearGradient><linearGradient id="j" x1="1050" x2="1050" y1="25" y2="777" gradientUnits="userSpaceOnUse"><stop offset="0" stop-color="#ff00df"/><stop offset="1" stop-color="#180090"/></linearGradient><linearGradient id="k" x1="1100" x2="1100" y1="25" y2="777" gradientUnits="userSpaceOnUse"><stop offset="0" stop-color="#ff00f7"/><stop offset="1" stop-color="#0b0083"/></linearGradient><linearGradient id="l" x1="1150" x2="1150" y1="25" y2="777" gradientUnits="userSpaceOnUse"><stop offset="0" stop-color="#E0F"/><stop offset="1" stop-color="#007"/></linearGradient></defs><g><rect width="1200" height="800" fill="url(#a)"/><rect width="1100" height="800" x="100" fill="url(#b)"/><rect width="1000" height="800" x="200" fill="url(#c)"/><rect width="900" height="800" x="300" fill="url(#d)"/><rect width="800" height="800" x="400" fill="url(#e)"/><rect width="700" height="800" x="500" fill="url(#f)"/><rect width="600" height="800" x="600" fill="url(#g)"/><rect width="500" height="800" x="700" fill="url(#h)"/><rect width="400" height="800" x="800" fill="url(#i)"/><rect width="300" height="800" x="900" fill="url(#j)"/><rect width="200" height="800" x="1000" fill="url(#k)"/><rect width="100" height="800" x="1100" fill="url(#l)"/></g></svg>